<svg xmlns="http://www.w3.org/2000/svg" viewBox="0 0 46 46" width="20" height="20"><defs><linearGradient id="a" x1="0" x2="46" y1="0" y2="46" gradientUnits="userSpaceOnUse"><stop offset="0" stop-color="#ff5f6d"/><stop offset="1" stop-color="#ffc371"/></linearGradient></defs><circle cx="23" cy="23" r="22" fill="#fff" stroke="#dadce0" stroke-width="2"/><path d="M22 15.6c1.9 0 3.6 0.64 5 1.73l3.7-3.7C28.3 11.5 25.3 10 22 10 14.7 10 8.4 14.8 6.1 21.3l4.4 3.4C11.5 17.6 16.3 15.6 22 15.6z" fill="#4285f4"/><path d="M34.1 24.1c0-.9-.1-1.8-.4-2.6H22v4.8h6.8c-.3 1.8-1.3 3.4-2.7 4.5l4.2 3.3c2.5-2.3 3.9-5.8 3.9-10z" fill="#34a853"/><path d="M10.5 21.5c-.4 1.1-.6 2.3-.6 3.5s.2 2.4.6 3.5l-4.4 3.4c-1-1.9-1.6-4.1-1.6-6.9 0-2.8.6-5 1.6-6.9l4.4 3.4z" fill="#fbbc04"/><path d="M22 36c3.3 0 6.2-1.1 8.3-3.1l-4-3.2c-1.2.8-2.7 1.3-4.3 1.3-3.7 0-6.8-2.5-7.9-5.9l-4.4 3.4C9.9 33.5 15.5 36 22 36z" fill="#ea4335"/></svg>