<svg xmlns="http://www.w3.org/2000/svg" viewBox="0 0 600 400" preserveAspectRatio="xMidYMid meet"><defs><linearGradient id="bg" x1="0" x2="0" y1="0" y2="1"><stop offset="0%" stop-color="#f8fafc"/><stop offset="100%" stop-color="#f1f5f9"/></linearGradient><linearGradient id="accent" x1="0" x2="1" y1="0" y2="1"><stop offset="0%" stop-color="#3b82f6"/><stop offset="100%" stop-color="#8b5cf6"/></linearGradient></defs><rect width="600" height="400" fill="url(#bg)"/><g opacity="0.6"><circle cx="80" cy="80" r="4" fill="#3b82f6"/><circle cx="520" cy="100" r="3" fill="#8b5cf6"/><circle cx="100" cy="300" r="3" fill="#3b82f6"/><circle cx="500" cy="280" r="4" fill="#8b5cf6"/><circle cx="300" cy="50" r="2" fill="#6366f1"/><circle cx="550" cy="350" r="2" fill="#6366f1"/><circle cx="50" cy="200" r="2" fill="#a78bfa"/></g><g transform="translate(420, 70)"><rect x="0" y="0" width="130" height="70" rx="14" fill="white" stroke="#e2e8f0" stroke-width="1"/><line x1="20" y1="28" x2="110" y2="28" stroke="#cbd5e1" stroke-width="3" stroke-linecap="round"/><line x1="20" y1="48" x2="80" y2="48" stroke="#e2e8f0" stroke-width="3" stroke-linecap="round"/><circle cx="28" cy="52" r="6" fill="#3b82f6" opacity="0.3"/></g><g transform="translate(60, 70)"><rect x="0" y="0" width="130" height="70" rx="14" fill="white" stroke="#e2e8f0" stroke-width="1"/><line x1="20" y1="28" x2="110" y2="28" stroke="#cbd5e1" stroke-width="3" stroke-linecap="round"/><line x1="20" y1="48" x2="80" y2="48" stroke="#e2e8f0" stroke-width="3" stroke-linecap="round"/><circle cx="28" cy="52" r="6" fill="#8b5cf6" opacity="0.3"/></g><g transform="translate(180, 220)"><rect x="0" y="0" width="140" height="80" rx="16" fill="white" stroke="#e2e8f0" stroke-width="1"/><circle cx="40" cy="30" r="20" fill="url(#accent)" opacity="0.9" stroke="white" stroke-width="3"/><line x1="20" y1="62" x2="120" y2="62" stroke="#e2e8f0" stroke-width="2" stroke-linecap="round"/><line x1="20" y1="72" x2="90" y2="72" stroke="#f1f5f9" stroke-width="2" stroke-linecap="round"/></g><g transform="translate(380, 220)"><rect x="0" y="0" width="140" height="80" rx="16" fill="white" stroke="#e2e8f0" stroke-width="1"/><circle cx="40" cy="30" r="20" fill="url(#accent)" opacity="0.9" stroke="white" stroke-width="3"/><line x1="20" y1="62" x2="120" y2="62" stroke="#e2e8f0" stroke-width="2" stroke-linecap="round"/><line x1="20" y1="72" x2="90" y2="72" stroke="#f1f5f9" stroke-width="2" stroke-linecap="round"/></g><g transform="translate(60, 180)"><rect x="0" y="0" width="260" height="3" rx="2" fill="#c7d2fe" opacity="0.5"/></g><g transform="translate(310, 180)"><rect x="0" y="0" width="210" height="3" rx="2" fill="#c7d2fe" opacity="0.5"/></g><g transform="translate(140, 120)"><circle cx="0" cy="0" r="8" fill="#3b82f6" opacity="0.4"/><circle cx="0" cy="0" r="16" fill="#3b82f6" opacity="0.15"/></g><g transform="translate(460, 150)"><circle cx="0" cy="0" r="6" fill="#8b5cf6" opacity="0.4"/><circle cx="0" cy="0" r="12" fill="#8b5cf6" opacity="0.15"/></g><g transform="translate(280, 140)"><rect x="-60" y="-25" width="120" height="50" rx="25" fill="url(#accent)" opacity="0.1" stroke="#8b5cf6" stroke-width="1" stroke-dasharray="4 4"/><text x="0" y="8" text-anchor="middle" fill="#4f46e5" font-size="13" font-family="Segoe UI, Arial, sans-serif" font-weight="600">NEXTGEN Network</text></g><path d="M 160 220 L 200 220 M 220 220 L 260 220" stroke="#c7d2fe" stroke-width="2" stroke-linecap="round" opacity="0.6"/><path d="M 400 220 L 440 220 M 460 220 L 500 220" stroke="#c7d2fe" stroke-width="2" stroke-linecap="round" opacity="0.6"/><path d="M 340 260 L 360 260 M 380 260 L 400 260" stroke="#c7d2fe" stroke-width="2" stroke-linecap="round" opacity="0.6"/><text x="300" y="360" font-size="14" text-anchor="middle" fill="#94a3b8" font-family="Segoe UI, Arial, sans-serif" font-weight="500">Professional Network • Career Growth • Clean Showcase</text></svg>